<svg xmlns="http://www.w3.org/2000/svg" xmlns:xlink="http://www.w3.org/1999/xlink" width="178.188" height="202.214" viewBox="0 0 178.188 202.214"><defs><style>.a{fill:#f9fcff;}.b{fill:#846a91;}.c{fill:#fff;}.d{fill:#77938e;}.e{fill:#393386;}.f{fill:#0b063e;}.g{fill:none;stroke:#1d0300;stroke-linecap:round;stroke-linejoin:round;stroke-miterlimit:10;stroke-width:0.489px;}.h{fill:#36036a;}.i{clip-path:url(#a);}.j{fill:#20013e;}.k{fill:#ffb0a9;}.l{fill:#f8b2a0;}.m{fill:#e18374;}.n{fill:#1d0300;}</style><clipPath id="a"><path d="M87.7,102.5H75.4a2.582,2.582,0,0,1-2.6-2.6V74.3a2.582,2.582,0,0,1,2.6-2.6H87.7a2.582,2.582,0,0,1,2.6,2.6V99.9A2.718,2.718,0,0,1,87.7,102.5Z"/></clipPath></defs><g transform="translate(-649.406 -330.786)"><circle class="a" cx="74.4" cy="74.4" r="74.4" transform="translate(649.406 499.877) rotate(-77.138)"/><g transform="translate(657.598 330.786)"><circle class="b" cx="17.7" cy="17.7" r="17.7" transform="translate(1.7 37)"/></g><g transform="translate(657.598 330.786)"><path class="c" d="M21.4,60.4c-2.7,0-5.4.1-7.8-.1-.8-.1-1.5-1.3-.5-1.7a2,2,0,0,1-1-.8.782.782,0,0,1,.5-1.1c-.9.2-1.3-1.2-.6-1.7a2.223,2.223,0,0,1-.8-1.3,1.145,1.145,0,0,1,.6-1.3,1.645,1.645,0,0,1,1-.2h3.3a7.781,7.781,0,0,1,.5-5.2c.3-.5,1-1,1.5-.7s.4,1.2.4,1.7a6,6,0,0,0,3,5.4S21.4,58,21.4,60.4Z"/><rect class="c" width="4" height="7" transform="translate(26.448 60.425) rotate(180)"/></g><g transform="translate(657.598 330.786)"><path class="d" d="M152.8,30H112.1a2.006,2.006,0,0,1-2-2V2a2.006,2.006,0,0,1,2-2h40.7a2.006,2.006,0,0,1,2,2V28A1.944,1.944,0,0,1,152.8,30Z"/><path class="d" d="M125.1,27l6.1,8.7a1.589,1.589,0,0,0,2.6,0l5.9-8.6H125.1Z"/></g><g transform="translate(657.598 330.786)"><path class="c" d="M140.5,23.4H124.1a.43.43,0,0,1-.4-.4V12.8a.43.43,0,0,1,.4-.4h16.4a.43.43,0,0,1,.4.4V23A.366.366,0,0,1,140.5,23.4Zm-16-.8h15.6V13.2H124.5v9.4Z"/><path class="c" d="M141.3,13.2h-18a.43.43,0,0,1-.4-.4V9.7a.43.43,0,0,1,.4-.4h18a.43.43,0,0,1,.4.4v3.1A.366.366,0,0,1,141.3,13.2Zm-17.6-.7h17.2V10.2H123.7Z"/><path class="c" d="M130.8,13.2h.8v9.4h-.8Z"/><path class="c" d="M133.1,13.2h.8v9.4h-.8Z"/><path class="c" d="M130.8,10.1h.8v2.3h-.8Z"/><path class="c" d="M133.1,10.1h.8v2.3h-.8Z"/><path class="c" d="M132.3,10.1a.43.43,0,0,1-.4-.4c0-3.9-1.8-4.3-2.5-4.3-1.2,0-1.3.6-1.3,1.2,0,1.1,1.8,2.7,2.3,2.7a.4.4,0,0,1,0,.8c-1,0-3.1-2-3.1-3.5a1.846,1.846,0,0,1,2.1-1.9c.8,0,3.3.4,3.3,5.1C132.7,9.9,132.6,10.1,132.3,10.1Z"/><path class="c" d="M134.3,10.1a.4.4,0,0,1,0-.8,3.775,3.775,0,0,0,2.3-2.7c0-.5-.2-1.2-1.3-1.2-.8,0-2.5.4-2.5,4.3a.4.4,0,1,1-.8,0c0-4.7,2.5-5.1,3.3-5.1a1.846,1.846,0,0,1,2.1,1.9C137.4,8.1,135.3,10.1,134.3,10.1Z"/></g><path class="b" d="M32.3,147.1H1.6a1.685,1.685,0,0,1-1.7-1.7h0a1.685,1.685,0,0,1,1.7-1.7H32.3a1.685,1.685,0,0,1,1.7,1.7h0A1.628,1.628,0,0,1,32.3,147.1Z" transform="translate(657.598 330.786)"/><path class="b" d="M148.7,65.6H134.2a1.685,1.685,0,0,1-1.7-1.7h0a1.685,1.685,0,0,1,1.7-1.7h14.5a1.685,1.685,0,0,1,1.7,1.7h0A1.685,1.685,0,0,1,148.7,65.6Z" transform="translate(657.598 330.786)"/><path class="e" d="M150,160.6h-2.4a1.11,1.11,0,0,1-1.1-1.1v-2.2a1.11,1.11,0,0,1,1.1-1.1H150a1.11,1.11,0,0,1,1.1,1.1v2.2A1,1,0,0,1,150,160.6Z" transform="translate(657.598 330.786)"/><path class="e" d="M38.2,18.8H35.8a1.11,1.11,0,0,1-1.1-1.1V15.5a1.11,1.11,0,0,1,1.1-1.1h2.4a1.11,1.11,0,0,1,1.1,1.1v2.2A1,1,0,0,1,38.2,18.8Z" transform="translate(657.598 330.786)"/><path class="f" d="M105.7,56.9C99.1,47.6,98,32.3,98,32.3L81.7,26.5V26l-1,.2-1-.2v.5L63.6,32.2s-1.8,15.9-8.4,25.2C48.7,66.6,53.4,78,80.7,76.3,108,78,112.2,66.1,105.7,56.9Z" transform="translate(657.598 330.786)"/><g transform="translate(657.598 330.786)"><path class="b" d="M80.4,152.6l7.1,42.5H112v-.5c-.4-9.6-1.4-53.9-16-74.6l-.3-3.3H64.1V120c-3.7,5.6-11.3,22.4-12.2,45.8,0,0-.6,8.4,1.2,29.3H76.5Z"/></g><line class="g" x2="31.9" transform="translate(721.698 456.687)"/><line class="g" y1="2.9" x2="15" transform="translate(731.598 482.487)"/><path class="d" d="M99.4,70.2s18.5-1.1,21.5,14.4c1.9,9.9,10,28.8,8.8,41.5-.7,8-10.8,13.1-19.4,9.7-2.3-.9-4.1-2.3-4.7-4.4C103.7,124.2,99.4,70.2,99.4,70.2Z" transform="translate(657.598 330.786)"/><path class="c" d="M74,68.3,59.1,69.7c-2.2.6-3.9,4.3-3.6,6.6l8.6,45.5H95.6l9.5-44.7c.3-2.4-1.3-6.4-3.5-7L86.7,67.9Z" transform="translate(657.598 330.786)"/><path class="d" d="M62.9,69.4S44.4,68.3,41.4,83.8c-1.9,9.9-10,28.8-8.8,41.5.7,8,10.8,13.1,19.4,9.7,2.3-.9,4.1-2.3,4.7-4.4C58.6,123.4,62.9,69.4,62.9,69.4Z" transform="translate(657.598 330.786)"/><g transform="translate(657.598 330.786)"><path class="d" d="M69.3,68.7s3.9,37.5,1.9,73.7L52,144.5s.8-19.9.5-26.2C51.8,98.5,43,79.2,43,79.2s4.8-8.6,13.1-9.5Z"/></g><line class="g" y1="13.9" x2="1.1" transform="translate(710.798 420.687)"/><path class="d" d="M92.5,68.7s-4.4,56.2-4.2,74.4l20.9.9s-1.3-44.4.7-67.2c.2-2.6-1.5-5.5-4.1-6C102.7,70.1,98.1,69.7,92.5,68.7Z" transform="translate(657.598 330.786)"/><line class="g" x1="1.2" y1="13.9" transform="translate(765.198 420.687)"/><g transform="translate(657.598 330.786)"><path class="h" d="M87.7,102.5H75.4a2.582,2.582,0,0,1-2.6-2.6V74.3a2.582,2.582,0,0,1,2.6-2.6H87.7a2.582,2.582,0,0,1,2.6,2.6V99.9A2.718,2.718,0,0,1,87.7,102.5Z"/><g class="i"><path class="j" d="M87.7,103.9H75.4a2.582,2.582,0,0,1-2.6-2.6V75.8a2.582,2.582,0,0,1,2.6-2.6H87.7a2.582,2.582,0,0,1,2.6,2.6v25.6A2.628,2.628,0,0,1,87.7,103.9Z"/></g></g><g transform="translate(657.598 330.786)"><path class="k" d="M72.6,87.1v-.3c-.1-1.9-2.3-2.4-3.6-1-1.6,1.7-3.6,4.8-5.1,11.6l4.8,4.9s13.2-4.2,16.2-9.7a1.193,1.193,0,0,0-.1-1.3,1.432,1.432,0,0,0-.9-.5,1.731,1.731,0,0,0,.5-1.9s-.2-.7-.8-.8c0,0,.4-2.1-1.3-2.2v-.1a1.655,1.655,0,0,0-.1-2h0a1.539,1.539,0,0,0-2.1-.2C78.5,84.8,74.7,87,72.6,87.1Z"/><path class="k" d="M72.7,87.7a20.092,20.092,0,0,0,.1-4.1,1.942,1.942,0,0,0-2.6-1.8h0c-1,.4-1.3,1.6-1.1,2.9.3,1.7-.4,3.3-1,5.8a13.634,13.634,0,0,0-.1,7.9Z"/></g><path class="d" d="M65.5,91.3,40,117.2l13.1,18.2L80,102.2Z" transform="translate(657.598 330.786)"/><line class="g" x1="21" y2="21.4" transform="translate(702.098 422.086)"/><line class="g" x1="18.9" y2="22" transform="translate(710.198 443.487)"/><g transform="translate(657.598 330.786)"><path class="k" d="M90.1,88.3l.1-3.3s5-1.3,8.6,13.4l-4.2,5.5s-13.7-4.2-16.9-9.7a1.334,1.334,0,0,1,0-1.3c.5-.6.8-.5.8-.5a1.886,1.886,0,0,1-.6-1.9s.2-.8.8-.9c0,0-.5-2.1,1.3-2.2v-.1a1.655,1.655,0,0,1,.1-2h0a1.546,1.546,0,0,1,2-.3C83.9,86.3,88,88.3,90.1,88.3Z"/></g><path class="d" d="M96.3,90.9,121,116.8l-11.3,18L81.9,102.4Z" transform="translate(657.598 330.786)"/><line class="g" x2="19.7" y2="21.1" transform="translate(753.898 421.687)"/><line class="g" x2="19.2" y2="23.5" transform="translate(747.498 442.487)"/><g transform="translate(657.598 330.786)"><path class="l" d="M85.8,54.1s-1.7.1-4.2.5c-2.4.4-4.4-.8-4.9.8l-2-1.6L73.2,68.4s7.4,3.9,14.4-.2Z"/><path class="m" d="M74.7,56.9,87,64.2,85.7,52.4Z"/><path class="f" d="M98,34.4c0,9.9-7.7,18-17.3,18-9.5,0-17.3-8.1-17.3-18s7.7-16.7,17.3-16.7S98,24.5,98,34.4Z"/><path class="l" d="M94.3,34.8a62.772,62.772,0,0,1-1.6,14c-.8,3.4-3.1,5.8-6.2,7.7l-.6.3a11.019,11.019,0,0,1-11.1.1h0c-3.4-2-5.9-4.5-6.6-8.2a83.094,83.094,0,0,1-1.5-13.9s-1.3-14.3,13.6-14C95.2,21,94.3,34.8,94.3,34.8Z"/><path class="l" d="M68.3,49c-2.5,2.4-8.3-4-6-6.9,2.1-2.6,4.7-.3,4.7-.3l.5,2.7.8,3.6.2.8Z"/><path class="l" d="M92.7,48.8c2.7,2.1,8.3-5.2,5.8-7.4a3.127,3.127,0,0,0-4.6.2l-.5,2.7-.7,3.6-.2.8Z"/><path class="f" d="M64.1,39.3l3.1,4-.6-9.8Z"/><path class="f" d="M96.5,39.3l-2.9,3.9.7-9.7Z"/><path class="f" d="M68.2,23.6s-.9,12.9,27.6,11c0,0,2.4-10-9.1-13.9S68.2,23.6,68.2,23.6Z"/><path class="f" d="M64.1,37.4s6.9-3,7.8-14.5C71.9,22.9,64.9,25,64.1,37.4Z"/><path class="g" d="M67,45.6s-.4-1.9-3-1.9"/><path class="g" d="M93.8,45.6s.4-1.9,3-1.9"/><path class="g" d="M76.5,50.6a7.95,7.95,0,0,0,6.9,0"/><path class="n" d="M86.5,36.6s-3-.6-3.2,1c0,0-.1,1.1,2.6,1.6,2.7.4,3.7.4,4-.7C90.3,37.5,87.9,36.7,86.5,36.6Z"/><path class="n" d="M73.4,36.6s-3.1.1-2.8,1.8c0,0,.2,1.1,2.9.9s3.7-.5,3.8-1.6C77.3,36.6,74.8,36.4,73.4,36.6Z"/><circle class="n" cx="1.2" cy="1.2" r="1.2" transform="translate(73.3 41.9)"/><circle class="n" cx="1.2" cy="1.2" r="1.2" transform="translate(85 41.9)"/><path class="g" d="M79.3,45.6v2.5h1.3"/></g><line class="g" x2="97.6" transform="translate(689.798 525.886)"/></g></svg>