<svg xmlns="http://www.w3.org/2000/svg" width="178.188" height="178.188" viewBox="0 0 178.188 178.188"><defs><style>.a{fill:#f9fcff;}.b{fill:#3f4f59;}.c{fill:#fff;}.d{fill:#643e6b;}.e{fill:#937699;}.f{fill:#906a95;}.g{fill:#ae94b2;}.h{fill:#38726a;}.i{fill:#6a9590;}.j{fill:#a481aa;}.k{fill:#b197b7;}.l{fill:none;stroke:#1d0300;}</style></defs><g transform="translate(-1092 -343)"><g transform="translate(203 -6)"><circle class="a" cx="74.4" cy="74.4" r="74.4" transform="translate(889 494.065) rotate(-77.138)"/><g transform="translate(905 351)"><path class="b" d="M104.858,168.756H23.607A10.583,10.583,0,0,1,13.1,158.25V26.007A10.583,10.583,0,0,1,23.607,15.5H105A10.583,10.583,0,0,1,115.5,26.007V158.25A10.7,10.7,0,0,1,104.858,168.756Z" transform="translate(5.252 6.214)"/><path class="c" d="M107.037,151.041H18.081a.958.958,0,0,1-.981-.981V22.581a.958.958,0,0,1,.981-.981h88.956a.958.958,0,0,1,.981.981v127.48A.958.958,0,0,1,107.037,151.041Z" transform="translate(6.855 8.659)"/><path class="d" d="M6.5,31v.14a10.086,10.086,0,0,0,20.173,0V31Z" transform="translate(2.606 12.427)"/><path class="e" d="M20.9,31v.14a10.086,10.086,0,0,0,20.173,0V31Z" transform="translate(8.378 12.427)"/><path class="d" d="M35.2,31v.14a10.086,10.086,0,0,0,20.173,0V31Z" transform="translate(14.111 12.427)"/><path class="e" d="M49.6,31v.14a10.086,10.086,0,0,0,20.173,0V31Z" transform="translate(19.884 12.427)"/><path class="d" d="M63.9,31v.14a10.086,10.086,0,1,0,20.173,0V31Z" transform="translate(25.616 12.427)"/><path class="e" d="M78.3,31v.14a10.086,10.086,0,0,0,20.173,0V31Z" transform="translate(31.389 12.427)"/><path class="f" d="M26.673,43.427H6.5L13.644,0H31.436Z" transform="translate(2.606)"/><path class="g" d="M40.933,43.427H20.9L25.663,0H43.314Z" transform="translate(8.378)"/><path class="f" d="M55.373,43.427H35.2L37.582,0H55.373Z" transform="translate(14.111)"/><path class="g" d="M69.633,43.427H49.6V0H67.391Z" transform="translate(19.884)"/><path class="f" d="M84.714,43.427H64.541L62.3,0H79.951Z" transform="translate(24.975)"/><path class="g" d="M99.836,43.427H79.663L74.9,0H92.691Z" transform="translate(30.026)"/><path class="c" d="M54.525,120.263a4.063,4.063,0,1,1-4.063-4.063A4.065,4.065,0,0,1,54.525,120.263Z" transform="translate(18.601 46.582)"/><path class="h" d="M46.229,88.77h-7.7v-.56a15.41,15.41,0,0,0-30.819,0v.56H1.4L0,145.926H47.63ZM9.106,88.21a14.009,14.009,0,0,1,28.018,0v.56H9.106Z" transform="translate(0 29.184)"/><path class="i" d="M46.649,96.4.14,128.48,0,136.465H47.63Z" transform="translate(0 38.645)"/><rect class="f" width="39.505" height="30.819" transform="translate(93.018 144.151)"/><rect class="j" width="6.724" height="30.819" transform="translate(109.549 144.151)"/><rect class="j" width="15.41" height="30.819" transform="translate(147.951 174.927) rotate(180)"/><rect class="k" width="8.405" height="2.241" transform="translate(146.305 172.791) rotate(180)"/><rect class="k" width="2.802" height="2.241" transform="translate(146.334 169.522) rotate(180)"/></g></g><path class="l" d="M0,0H168" transform="translate(1097.5 520.5)"/></g></svg>